<?xml version="1.0"?>
<svg version="1.1" xmlns="http://www.w3.org/2000/svg" width="620" height="200" style="border: dashed 2px #aaa"><path fill="#fff200" d="M17.953125,140.125q0.28125-7.59375,0.4921875-15.5625t0.3984375-15.7265625t0.28125-15.0703125t0.09375-13.640625q0.09375-1.265625,2.203125-2.015625t5.0390625-1.1015625t6.1875-0.4453125t5.7890625-0.09375q0.5625,0,2.34375-0.046875l0.890625,0q1.359375,0,2.859375,0.09375q1.96875,0.140625,3.4453125,0.609375t1.4765625,1.359375q0,0.65625-0.515625,1.0546875t-1.1953125,0.5859375t-1.40625,0.234375t-1.0078125,0.046875q-4.40625,0-8.71875-0.140625q-1.171875-0.046875-2.390625-0.046875q-3.1875,0-6.46875,0.28125q0.1875,0.5625,0.3046875,3.3984375t0.1171875,6.3984375t-0.046875,6.9609375t0,5.2265625l0,12.1875q1.453125-0.09375,2.859375-0.09375l2.8125,0l1.875-0.09375q0.9375-0.046875,1.96875-0.046875q1.078125,0,2.203125,0.046875q2.25,0.09375,4.1015625,0.5390625t1.8515625,1.5703125q0,0.84375-0.703125,1.2421875t-1.5703125,0.5859375t-1.640625,0.1875l-0.8671875,0q-2.671875,0-5.5546875-0.1875t-5.3671875-0.1875q-0.46875,0.1875-1.0078125,0.140625t-0.9609375-0.046875q0,7.03125-0.140625,13.9921875t-0.328125,13.8515625q0,1.359375-1.7109375,1.78125t-3.2578125,0.421875q-1.734375,0-2.7421875-0.421875t-1.4296875-1.3828125t-0.515625-2.5546875q-0.046875-0.890625-0.09375-1.96875q0-0.890625,0.046875-1.921875z M56.18765625,130.515625q0-3.1875,0.8671875-6.140625t2.6015625-5.2734375t4.3359375-3.703125t6.0234375-1.3828125q2.109375,0,4.6640625,0.6328125t4.8046875,1.875t3.75,3.1640625t1.5,4.40625q0,1.171875-0.3984375,1.78125t-1.6171875,0.609375l-0.515625-0.09375q1.359375,3.65625,2.34375,7.5t1.921875,7.6875q0.375,0.75,0.5625,1.3359375t0.1875,1.1484375q0,0.75-0.421875,1.2421875t-1.1015625,0.7265625t-1.40625,0.328125t-1.2890625,0.09375q-2.015625,0-3.0234375-0.703125t-1.453125-1.921875t-0.5390625-2.7421875t-0.375-3.0703125q-0.5625,1.828125-1.4765625,3.5625t-2.15625,3.1171875t-2.9296875,2.203125t-3.796875,0.8203125q-3.09375,0-5.203125-1.78125t-3.3984375-4.3828125t-1.875-5.5546875t-0.5859375-5.484375z M62.84390625,129.859375q0,1.734375,0.234375,3.65625t0.7734375,3.796875t1.3828125,3.5390625t2.109375,2.9296875q2.296875-2.484375,3.3984375-6.046875t1.96875-6.8671875t1.96875-5.671875t3.3984375-2.3671875q1.453125,0,2.4375,0.515625q-0.46875-1.171875-1.546875-2.2734375t-2.4140625-2.015625t-2.765625-1.5t-2.6953125-0.5859375q-0.375,0-0.8671875,0.1171875t-0.7734375,0.0234375q-1.921875,0.5625-3.1640625,1.9453125t-2.015625,3.2578125t-1.1015625,3.84375t-0.328125,3.703125z M64.43765625,95.03125q0-0.5625,0.7734375-1.640625t1.78125-2.0859375l1.828125-1.828125t1.0078125-0.9140625q2.578125-2.296875,5.484375-2.296875q1.078125,0,2.3203125,0.4453125t1.2421875,1.1953125q0,0.46875-0.3984375,0.7265625t-0.6796875,0.4453125q-0.5625,0-1.2421875,0.65625t-1.5,1.6640625t-1.78125,2.203125t-1.9921875,2.2734375q-0.65625,0.75-1.875,0.84375t-1.6875,0.09375q-0.84375,0-2.0625-0.375t-1.21875-1.40625z M94.8909375,100.75q0-0.65625,1.40625-1.125t3.1875-0.7734375t3.4453125-0.4453125t2.2734375-0.234375q0-1.265625,0.09375-2.5546875t0.515625-2.296875t1.3359375-1.6171875t2.5546875-0.609375q1.359375,0,2.0625,0.328125t1.5,1.359375q0.1875,0.5625,0.1875,1.078125l0,1.5703125t-0.09375,1.6171875q1.734375-0.1875,3.4453125-0.4453125t3.4453125-0.2578125q1.265625,0,1.734375,0.046875t0.9375,1.125q0.375,1.078125-0.9140625,1.640625t-3.09375,0.84375t-3.5859375,0.421875t-2.15625,0.140625q-0.5625,8.0625-1.1484375,15.984375t-0.5859375,16.078125q0,3.65625,0.234375,7.546875t1.3125,7.359375q0.28125,1.078125,0.9375,2.015625t0.65625,2.015625q0,0.65625-0.515625,1.03125t-1.2421875,0.6328125t-1.453125,0.3046875t-1.1953125,0.046875q-2.953125,0-4.5-2.203125t-2.2265625-5.2734375t-0.7265625-6.3046875t-0.046875-5.25q0-4.125,0.1640625-8.4375t0.3984375-8.53125t0.65625-8.25t0.984375-7.5q-1.640625,0.1875-3.2109375,0.421875t-3.2109375,0.234375q-0.375,0-1.0078125-0.046875t-1.1953125-0.234375t-0.9609375-0.515625t-0.3984375-0.9375z M130.73484375,129.390625q0-4.3125,1.0078125-8.4609375t1.7109375-8.2734375q0.1875-1.078125,1.4765625-1.3359375t2.1796875-0.2578125q1.546875,0,2.484375,0.46875q0.375,0.1875,0.703125,0.421875t0.328125,0.609375q0,4.03125-0.9609375,7.875t-0.9609375,8.15625q0,1.453125,0.2109375,2.7421875t0.3984375,2.5546875l0.28125,1.359375q0,0.375,0.046875,0.65625t0.140625,0.65625q0,0.84375-1.1953125,1.1484375t-2.0859375,0.3046875q-1.359375,0-2.5078125-0.5390625t-1.8046875-1.8515625l-0.65625-1.359375q-0.5625-1.078125-0.5625-2.4140625t-0.234375-2.4609375z M133.73484375,101.171875l0-0.890625q0-2.203125,1.1015625-3.9375t3.3046875-1.734375q0.28125,0,0.5390625,0.046875t0.5390625,0.046875q0.5625,0.09375,1.4765625,0.4453125t0.9140625,1.1015625l0,0.09375q-0.1875,0.375-0.234375,0.7734375t-0.234375,0.6796875l0.09375-0.09375q-0.5625,1.453125-0.9140625,2.34375t-0.7734375,1.4296875t-1.0546875,0.7734375t-1.8046875,0.234375q-0.1875,0-0.65625-0.046875t-1.0078125-0.1875t-0.9140625-0.375t-0.375-0.703125z M151.3209375,118.7734375q-0.1171875-1.5703125,0.1875-2.8828125t1.21875-2.1328125t2.9296875-0.8203125q0.46875,0,1.1484375,0.1171875t1.3359375,0.3046875t1.1015625,0.5625t0.4453125,1.03125l0,5.296875q1.828125-2.109375,3.984375-3.0234375t4.921875-0.9140625q2.109375,0,4.171875,0.9609375t3.890625,2.5546875t3.1640625,3.515625t1.9453125,3.84375q0.375-1.734375,0.84375-4.2421875t1.3828125-4.8046875t2.4140625-3.9375t3.984375-1.640625q2.671875,0,4.5,1.921875t2.9765625,4.9921875t1.734375,6.8671875t0.8671875,7.5t0.28125,6.9140625l0,5.0390625q0,0.5625-0.421875,0.9140625t-1.0546875,0.5390625t-1.3125,0.234375t-1.0546875,0.046875q-1.453125,0-2.6484375-0.4453125t-1.1953125-2.2734375l0-4.21875t-0.09375-5.4609375t-0.328125-5.859375t-0.609375-5.3203125t-0.9609375-3.84375t-1.4296875-1.5q-1.171875,0-1.6875,1.3125t-0.8671875,3.328125t-0.5390625,4.265625t-0.515625,4.265625t-1.0546875,3.3046875t-1.9921875,1.2890625q-1.359375,0-2.390625-1.2890625t-2.0390625-3.2109375t-2.015625-4.125t-2.2265625-4.125q-1.21875-1.96875-2.625-3.1875q-1.265625-1.171875-2.859375-1.125l-0.234375,0q-2.109375,0.09375-3.3046875,1.5234375t-1.828125,3.4921875t-0.7734375,4.4296875t-0.140625,4.1484375q0,1.6875,0.28125,3.9375q0.1875,1.5,0.1875,2.859375q0,0.703125-0.046875,1.359375q-0.140625,1.96875-1.0546875,3.3046875t-3.3984375,1.3359375q-0.9375,0-2.34375-0.1875t-1.875-1.265625q-1.078125-1.921875-1.640625-4.8515625t-0.84375-6.046875t-0.328125-6.1875t-0.046875-5.2734375q0-1.546875-0.1171875-3.1171875z M210.43828125,130.515625q0-3.1875,0.8671875-6.140625t2.6015625-5.2734375t4.3359375-3.703125t6.0234375-1.3828125q2.109375,0,4.6640625,0.6328125t4.8046875,1.875t3.75,3.1640625t1.5,4.40625q0,1.171875-0.3984375,1.78125t-1.6171875,0.609375l-0.515625-0.09375q1.359375,3.65625,2.34375,7.5t1.921875,7.6875q0.375,0.75,0.5625,1.3359375t0.1875,1.1484375q0,0.75-0.421875,1.2421875t-1.1015625,0.7265625t-1.40625,0.328125t-1.2890625,0.09375q-2.015625,0-3.0234375-0.703125t-1.453125-1.921875t-0.5390625-2.7421875t-0.375-3.0703125q-0.5625,1.828125-1.4765625,3.5625t-2.15625,3.1171875t-2.9296875,2.203125t-3.796875,0.8203125q-3.09375,0-5.203125-1.78125t-3.3984375-4.3828125t-1.875-5.5546875t-0.5859375-5.484375z M217.09453125,129.859375q0,1.734375,0.234375,3.65625t0.7734375,3.796875t1.3828125,3.5390625t2.109375,2.9296875q2.296875-2.484375,3.3984375-6.046875t1.96875-6.8671875t1.96875-5.671875t3.3984375-2.3671875q1.453125,0,2.4375,0.515625q-0.46875-1.171875-1.546875-2.2734375t-2.4140625-2.015625t-2.765625-1.5t-2.6953125-0.5859375q-0.375,0-0.8671875,0.1171875t-0.7734375,0.0234375q-1.921875,0.5625-3.1640625,1.9453125t-2.015625,3.2578125t-1.1015625,3.84375t-0.328125,3.703125z M269.32921875,142.9375q0.09375-1.96875,0.09375-3.84375q0-6.796875,0.4921875-13.546875t0.6796875-13.546875q0.28125-7.78125,0.515625-15.421875t0.9375-15.375q0.1875-1.921875,1.1015625-2.5078125t2.7421875-0.5859375q0.84375,0,2.25,0.328125t1.40625,1.59375q0.65625,0.09375,1.3125,0.09375q0.984375,0,2.015625-0.1875q1.6875-0.28125,3.4453125-0.6328125t3.4921875-0.6796875t3.328125-0.328125q0.375,0,1.0546875,0.046875t1.359375,0.28125t1.1484375,0.5859375t0.46875,0.9140625t-1.1015625,1.0078125t-2.8828125,0.7734375t-3.84375,0.5625t-4.03125,0.3984375t-3.4921875,0.2578125t-2.1796875,0.09375l-0.09375,17.625l0.09375,8.765625q1.453125,0,4.359375-0.09375q1.171875-0.046875,2.34375-0.046875q1.78125,0,3.65625,0.09375q3.09375,0.140625,5.578125,0.5625t3.140625,1.5q0,0.65625-0.6796875,1.0546875t-1.5234375,0.5859375t-1.7109375,0.234375t-1.2421875,0.046875q-3.46875,0-6.984375-0.140625t-6.9375-0.5625q0,5.765625-0.3046875,11.4375t-0.3046875,11.4375q0,2.484375,0.046875,4.8984375t0.5625,4.8046875q1.265625-0.09375,2.7421875-0.234375t3-0.3515625t2.9296875-0.3515625t2.4375-0.140625q0.5625,0,1.5234375,0.140625t1.96875,0.46875t1.734375,0.8203125t0.7265625,1.1484375q0,0.75-1.3828125,1.3359375t-3.5390625,0.9375t-4.7109375,0.4921875t-4.9453125,0.1875t-4.3125,0.046875l-2.71875,0q-2.578125,0-3.7734375-0.9609375t-1.6640625-2.5078125q-0.375-1.265625-0.328125-2.859375l0-0.65625z M308.31375,118.421875q0-1.921875,1.125-3.3046875t2.7421875-2.25t3.5390625-1.2890625t3.5625-0.421875q1.265625,0,3.375,0.375t4.125,1.125t3.4921875,1.96875t1.4765625,2.859375q0,0.75-0.5625,1.3359375t-1.171875,0.5859375q-1.265625,0-2.296875-0.8203125t-2.1328125-1.734375t-2.4140625-1.734375t-2.953125-0.8203125t-2.9765625,1.0546875t-1.3359375,2.7890625q0,2.859375,2.015625,5.6015625t4.4296875,5.765625t4.4296875,6.3515625t2.015625,7.359375q0,1.734375-0.7265625,2.9296875t-1.921875,1.9453125t-2.6953125,1.1484375t-2.90625,0.3984375q-1.546875,0-3.609375-0.7265625t-3.890625-1.921875t-3.0703125-2.7890625t-1.2421875-3.328125q0-0.84375,1.1953125-1.078125t1.7578125-0.234375q0.28125,0,0.8671875,0.1875t1.1484375,0.421875t1.0078125,0.515625t0.3515625,0.609375q0.46875,0.5625,1.4296875,1.6640625t1.921875,1.78125t1.6875,0.4921875t0.7265625-2.109375q0-3.65625-1.96875-6.7265625t-4.2890625-6t-4.2890625-5.8125t-1.96875-6.1640625z M341.34515625,129.578125q0-3.375,0.8671875-6.7734375t2.6953125-6.09375t4.6640625-4.3828125t6.6796875-1.6875q1.640625,0,3.609375,0.3984375t3.6328125,1.265625t2.8125,2.25t1.1484375,3.3984375q0,1.265625-0.65625,1.6875t-1.734375,0.421875l-0.328125-0.46875t-0.9140625-1.1953125t-1.2421875-1.546875t-1.265625-1.3828125q-1.921875-1.921875-3.609375-2.0625l-0.375,0q-1.40625,0-2.625,0.84375q-1.359375,1.03125-2.4140625,2.90625t-1.7578125,3.984375t-1.1015625,4.265625t-0.3984375,3.5625q0,1.921875,0.4453125,4.3828125t1.5,4.6640625t2.671875,3.703125t4.1484375,1.5q2.296875,0,4.171875-1.125t3.5859375-2.5078125t3.3515625-2.484375t3.375-1.1015625q0.75,0,1.5234375,0.1875t0.7734375,0.984375l0,0.28125q-0.84375,2.203125-2.859375,3.890625t-4.5234375,2.9296875t-5.203125,1.8515625t-4.8046875,0.609375q-3.9375,0-6.9140625-1.2890625t-4.9453125-3.5390625t-2.9765625-5.4140625t-1.0078125-6.9140625z M381.3140625,131.40625q0-2.671875,0.6796875-5.5078125t2.15625-5.109375t3.7265625-3.703125t5.4375-1.4296875q2.390625,0,5.0390625,0.8203125t4.8515625,2.34375t3.5859375,3.7265625t1.3828125,4.921875q0,3.28125-1.1953125,6.234375t-3.3515625,5.2734375t-5.0390625,3.65625t-6.2578125,1.3359375q-2.765625,0-4.828125-1.0078125t-3.4453125-2.6953125t-2.0625-3.984375t-0.6796875-4.875z M388.2046875,131.3125q0,0.84375,0.2578125,2.484375t0.7734375,3.2109375t1.3359375,2.71875t1.9921875,1.0546875q2.484375-0.28125,4.1015625-1.6171875t2.625-3.2578125t1.40625-4.171875t0.3984375-4.265625q0-2.578125-1.0078125-4.3125t-3.3046875-2.8125q0,0.09375,0.09375,0.09375t0.09375-0.09375l-1.171875-0.28125q-0.46875-0.1875-1.1484375-0.421875t-1.3359375-1.03125q-1.828125,0.65625-2.8359375,1.6875t-1.5234375,2.5078125t-0.6328125,3.5390625t-0.1171875,4.96875z M416.82984375,116.875q0-3.28125,0.3046875-8.53125t0.7265625-10.828125t1.0546875-10.5703125t1.3828125-7.6640625q0.28125-1.171875,1.3359375-1.40625t2.1328125-0.234375q1.453125,0,2.5078125,0.515625t1.0546875,2.25q0,8.53125-1.0546875,17.0859375t-1.1484375,17.0859375q1.453125-2.203125,3.75-3.3046875t4.875-1.1015625q3.5625,0,6.140625,1.453125t4.171875,3.75t2.3671875,5.3203125t0.7734375,6.1640625q0,1.734375-0.3515625,4.3359375t-1.0546875,5.484375t-1.78125,5.71875t-2.5546875,5.0859375t-3.3984375,3.6328125t-4.21875,1.3828125q-0.46875,0-1.2421875-0.140625t-1.546875-0.421875t-1.2890625-0.7265625t-0.515625-1.1015625q0-0.75,0.9140625-1.0546875t1.4765625-0.3046875q2.109375-0.9375,3.75-3.9140625t2.7421875-6.5390625t1.6640625-7.0546875t0.5625-5.6953125q0-1.265625-0.375-3.375t-1.1484375-4.171875t-2.109375-3.5625t-3.1640625-1.5q-2.203125,0-3.515625,2.2734375t-2.0625,5.296875t-1.0078125,6.234375t-0.2578125,5.0390625q0,1.171875,0.3984375,2.3203125t0.9140625,2.296875t0.9140625,2.34375t0.3984375,2.3671875q0,0.5625-0.4921875,0.9375t-1.1484375,0.609375t-1.3828125,0.3046875t-1.1015625,0.0703125q-2.671875,0-3.703125-1.265625t-1.78125-3.5625q-1.640625-5.203125-2.2734375-10.5703125t-0.6328125-10.7578125z M456.79875,132.4375q0-3.28125,0.7265625-7.734375t2.4609375-8.4375t4.5703125-6.7734375t7.1484375-2.7890625q4.03125,0,6.046875,2.3203125t2.015625,6.2578125q0,2.578125-0.9609375,5.6484375t-2.7421875,5.8125t-4.21875,4.5703125t-5.4375,1.828125l-1.21875-0.09375q0,1.265625,0.375,3.3984375t1.1015625,4.2421875t1.875,3.703125t2.7890625,1.59375q2.390625,0,4.59375-1.921875t4.171875-4.265625t3.65625-4.265625t3.09375-1.921875q0.75,0,1.546875,0.234375t0.890625,1.3125q0,0.65625-0.3515625,1.078125t-0.6328125,0.9375q-1.453125,2.484375-3.1640625,4.734375t-3.8671875,4.078125t-4.7109375,2.8828125t-5.6484375,1.0546875q-4.03125,0-6.703125-1.4296875t-4.3125-3.84375t-2.3671875-5.578125t-0.7265625-6.6328125z M465.189375,128.875l1.3125,1.171875q0.9375,0.84375,1.875,0.375t1.6875-1.7109375t1.3828125-3.0703125t1.125-3.75t0.7265625-3.75t0.234375-3.046875l0-1.59375t-0.140625-1.6875t-0.4921875-1.3359375t-1.1015625-0.6796875q-0.234375-0.046875-0.421875-0.046875q-1.59375,0-2.71875,2.015625q-1.21875,2.25-1.96875,5.4609375t-1.078125,6.5859375t-0.421875,5.0625z M495.97078125,129.953125q0-3.65625,0.7734375-6.6328125t2.4609375-5.0390625t4.4296875-3.2109375t6.6796875-1.1484375q2.203125,0,4.5,0.5859375t3.9375,2.1796875q0-0.9375,0.1875-3.8671875t0.46875-6.8203125t0.5859375-8.15625t0.5390625-7.921875t0.421875-6.140625t0.28125-2.8125q0.46875-1.359375,1.734375-1.6171875t2.390625-0.2578125q2.953125,0,3.6328125,0.9375t0.6796875,3.75q0,10.265625-0.9140625,20.4375t-0.9140625,20.4375q0,6.609375,0.2578125,13.2890625t1.8515625,13.1484375l0.515625,0.46875l0.28125,0.84375l-0.703125,1.078125q-1.78125,1.125-4.125,1.125l-0.1875,0q-2.390625,0-4.40625-1.125q-0.75-0.46875-1.2421875-2.7890625t-0.7734375-5.109375t-0.421875-5.3671875t-0.234375-3.65625q-1.640625,3.75-4.4765625,6.4453125t-7.1484375,2.6953125q-3.375,0-5.53125-1.453125t-3.3515625-3.703125t-1.6875-5.0390625t-0.4921875-5.5546875z M501.64265625,130.234375q0,1.078125,0.2578125,3.1875t0.8203125,4.21875t1.5703125,3.75t2.6484375,1.640625q2.203125-1.078125,3.984375-3.5859375t3.0703125-5.53125t2.015625-6.046875t0.7265625-5.2265625q0-2.765625-2.015625-4.59375t-4.828125-1.828125q-0.84375,0-1.7109375,0.328125t-1.6171875,0.75q-1.734375,1.640625-2.6953125,2.9765625t-1.453125,2.765625t-0.6328125,3.1640625t-0.140625,4.03125z M539.4084375,131.40625q0-2.671875,0.6796875-5.5078125t2.15625-5.109375t3.7265625-3.703125t5.4375-1.4296875q2.390625,0,5.0390625,0.8203125t4.8515625,2.34375t3.5859375,3.7265625t1.3828125,4.921875q0,3.28125-1.1953125,6.234375t-3.3515625,5.2734375t-5.0390625,3.65625t-6.2578125,1.3359375q-2.765625,0-4.828125-1.0078125t-3.4453125-2.6953125t-2.0625-3.984375t-0.6796875-4.875z M546.2990625,131.3125q0,0.84375,0.2578125,2.484375t0.7734375,3.2109375t1.3359375,2.71875t1.9921875,1.0546875q2.484375-0.28125,4.1015625-1.6171875t2.625-3.2578125t1.40625-4.171875t0.3984375-4.265625q0-2.578125-1.0078125-4.3125t-3.3046875-2.8125q0,0.09375,0.09375,0.09375t0.09375-0.09375l-1.171875-0.28125q-0.46875-0.1875-1.1484375-0.421875t-1.3359375-1.03125q-1.828125,0.65625-2.8359375,1.6875t-1.5234375,2.5078125t-0.6328125,3.5390625t-0.1171875,4.96875z"/><path fill="#" d=""/></svg>
